<?xml version="1.0" encoding="UTF-8"?>
<svg xmlns="http://www.w3.org/2000/svg" version="1.1" viewBox="0 0 286 286">
  <!-- Generator: Adobe Illustrator 28.7.1, SVG Export Plug-In . SVG Version: 1.2.0 Build 142)  -->
  <g>
    <g id="Layer_1">
      <path d="M39.8,110.7"/>
      <path d="M261.9,118.4L167.6,24.1c-13.6-13.6-35.7-13.6-49.3,0L24.1,118.4c-13.6,13.6-13.6,35.7,0,49.3l94.2,94.2c13.6,13.6,35.7,13.6,49.3,0l94.2-94.2c13.6-13.6,13.6-35.7,0-49.3ZM233.7,152.1c0,3.4-2.8,6.2-6.2,6.2h-59.2c-3.4,0-6.2,2.8-6.2,6.2v59.2c0,3.4-2.8,6.2-6.2,6.2h-25.2c-3.4,0-6.2-2.8-6.2-6.2v-59.2c0-3.4-2.8-6.2-6.2-6.2h-59.6c-3.4,0-6.2-2.8-6.2-6.2v-25.3c0-3.4,2.8-6.2,6.2-6.2h59.6c3.4,0,6.2-2.8,6.2-6.2v-59.6c0-3.4,2.8-6.2,6.2-6.2h25.2c3.4,0,6.2,2.8,6.2,6.2v59.6c0,3.4,2.8,6.2,6.2,6.2h59.2c3.4,0,6.2,2.8,6.2,6.2v25.3Z"/>
    </g>
  </g>
</svg>