<?xml version="1.0" encoding="UTF-8"?>
<svg xmlns="http://www.w3.org/2000/svg" version="1.1" viewBox="0 0 286 286">
  <defs>
    <style>
      .cls-1 {
        fill: #fff;
      }
    </style>
  </defs>
  <!-- Generator: Adobe Illustrator 28.7.1, SVG Export Plug-In . SVG Version: 1.2.0 Build 142)  -->
  <g>
    <g id="Layer_1">
      <circle cx="143" cy="143" r="139.9"/>
      <path class="cls-1" d="M224.4,244.5h-32.9c-3.6,0-6.5-2.9-6.5-6.5v-69.7c0-3.6-2.9-6.5-6.5-6.5h-71.1c-3.6,0-6.5,2.9-6.5,6.5v69.7c0,3.6-2.9,6.5-6.5,6.5h-32.7c-3.6,0-6.5-2.9-6.5-6.5V48c0-3.6,2.9-6.5,6.5-6.5h32.7c3.6,0,6.5,2.9,6.5,6.5v68c0,3.6,2.9,6.5,6.5,6.5h71.1c3.6,0,6.5-2.9,6.5-6.5V48c0-3.6,2.9-6.5,6.5-6.5h32.9c3.6,0,6.5,2.9,6.5,6.5v190c0,3.6-2.9,6.5-6.5,6.5Z"/>
    </g>
  </g>
</svg>