<?xml version="1.0" encoding="utf-8"?>
<!-- Generator: Adobe Illustrator 28.7.1, SVG Export Plug-In . SVG Version: 9.03 Build 54978)  -->
<svg version="1.1" id="Layer_1" xmlns="http://www.w3.org/2000/svg" xmlns:xlink="http://www.w3.org/1999/xlink" x="0px" y="0px"
	 viewBox="0 0 286 286" style="enable-background:new 0 0 286 286;" xml:space="preserve">
<path d="M143,3.1C65.7,3.1,3.1,65.7,3.1,143S65.7,282.9,143,282.9S282.9,220.3,282.9,143S220.3,3.1,143,3.1z M230.9,238
	c0,3.6-2.9,6.5-6.5,6.5h-32.9c-3.6,0-6.5-2.9-6.5-6.5v-69.7c0-3.6-2.9-6.5-6.5-6.5h-71.1c-3.6,0-6.5,2.9-6.5,6.5V238
	c0,3.6-2.9,6.5-6.5,6.5H61.7c-3.6,0-6.5-2.9-6.5-6.5V48c0-3.6,2.9-6.5,6.5-6.5h32.7c3.6,0,6.5,2.9,6.5,6.5v68c0,3.6,2.9,6.5,6.5,6.5
	h71.1c3.6,0,6.5-2.9,6.5-6.5V48c0-3.6,2.9-6.5,6.5-6.5h32.9c3.6,0,6.5,2.9,6.5,6.5V238z"/>
</svg>
