<?xml version="1.0" encoding="UTF-8"?>
<svg xmlns="http://www.w3.org/2000/svg" version="1.1" viewBox="0 0 286 286">
  <!-- Generator: Adobe Illustrator 28.7.1, SVG Export Plug-In . SVG Version: 1.2.0 Build 142)  -->
  <g>
    <g id="Layer_1">
      <path d="M39.8,110.7"/>
      <path d="M256.2,123.5L143,23.6,29.8,123.5,6.5,246.6h273.1l-23.3-123ZM212,165.1c0,2.6-2.1,4.7-4.7,4.7h-45c-2.6,0-4.7,2.1-4.7,4.7v45c0,2.6-2.1,4.7-4.7,4.7h-19.1c-2.6,0-4.7-2.1-4.7-4.7v-45c0-2.6-2.1-4.7-4.7-4.7h-45.3c-2.6,0-4.7-2.1-4.7-4.7v-19.3c0-2.6,2.1-4.7,4.7-4.7h45.3c2.6,0,4.7-2.1,4.7-4.7v-45.3c0-2.6,2.1-4.7,4.7-4.7h19.1c2.6,0,4.7,2.1,4.7,4.7v45.3c0,2.6,2.1,4.7,4.7,4.7h45c2.6,0,4.7,2.1,4.7,4.7v19.3Z"/>
    </g>
  </g>
</svg>