<?xml version="1.0" encoding="UTF-8"?>
<svg xmlns="http://www.w3.org/2000/svg" version="1.1" viewBox="0 0 286 286">
  <!-- Generator: Adobe Illustrator 28.7.1, SVG Export Plug-In . SVG Version: 1.2.0 Build 142)  -->
  <g>
    <g id="Layer_1">
      <g>
        <path d="M143.1,261.5c-27,0-53.9,0-80.9,0-17.2,0-28.2-10.5-28.3-27.8-.3-32.1-.1-64.2-.3-96.3,0-3,1-4.5,3.5-6.1,34.1-21.1,68.2-42.3,102.2-63.6,3.1-2,5.3-1.9,8.4,0,33.8,21.2,67.7,42.3,101.7,63.3,2.7,1.7,3.7,3.5,3.7,6.6-.2,32.5-.2,65-.5,97.4-.2,15.4-11.3,26.2-26.8,26.2-27.6.1-55.1,0-82.7,0ZM125.1,215.9c0,4.7.2,9.5,0,14.2-.2,3.4.9,4.5,4.3,4.4,9.3-.2,18.5-.2,27.8,0,3.9.1,4.6-1.4,4.5-4.8-.2-9.3,0-18.5-.1-27.8,0-3.4,1-4.4,4.3-4.3,9.3.2,18.5,0,27.8.1,3.5,0,4.9-.7,4.8-4.5-.3-9.2-.3-18.5,0-27.8.1-3.7-1-4.7-4.6-4.6-8.7.2-17.3-.2-26,.2-4.7.2-6.6-.8-6.3-6,.5-8.6,0-17.3.2-26,0-3.3-.8-4.5-4.2-4.4-9.4.2-18.9.2-28.4,0-3.2,0-4,1.1-3.9,4.1.2,8.7-.4,17.4.2,26,.4,5.5-1.7,6.5-6.6,6.3-8.5-.4-16.9,0-25.4-.2-3.9-.1-5,1.1-4.9,5,.3,8.9.3,17.7,0,26.6-.1,4,.9,5.5,5.2,5.4,8.9-.3,17.7.2,26.6-.2,4.3-.2,5.4,1.3,5.1,5.3-.3,4.3,0,8.7,0,13Z"/>
        <path d="M261.6,105.9c.3,3.5-.7,6.3-3.8,8.2-3.5,2.1-6.8,1.2-10-.9-16.3-10.7-32.6-21.3-48.9-32.1-16.9-11.2-33.9-22.3-50.6-33.7-3.6-2.5-6.1-2.6-9.8,0-31.6,21.1-63.3,42-95,63-2.1,1.4-4.3,2.8-6.6,4-4.5,2.3-8.2.6-10.8-3.1-2.8-3.9-2.3-7.8,1.2-11.2,1.3-1.2,2.8-2.1,4.3-3.1,34.5-23.1,69.1-46.1,103.5-69.4,5.7-3.9,10.3-4,16.1-.2,34.6,23.3,69.4,46.4,104.2,69.5,3.3,2.2,6.9,4.2,6.2,9Z"/>
      </g>
    </g>
  </g>
</svg>